<?xml version="1.0" standalone="no"?>
<!DOCTYPE svg PUBLIC "-//W3C//DTD SVG 1.1//EN" "http://www.w3.org/Graphics/SVG/1.1/DTD/svg11.dtd">
<svg width="600.000000" height="600.000000" version = "1.1" 
    xmlns="http://www.w3.org/2000/svg">
    <g transform="scale(6.000000)">
        <rect x = "0" y = "0" width = "100" height = "100" fill = "gray" stroke = "black" stroke-width = "0.166667"/>
        <rect x = "0" y = "81" width = "19" height = "19" fill = "#0397D6" stroke = "black" stroke-width = "0.166667"/>
        <rect x = "0" y = "62" width = "19" height = "19" fill = "#0397D6" stroke = "black" stroke-width = "0.166667"/>
        <rect x = "0" y = "43" width = "19" height = "19" fill = "#0397D6" stroke = "black" stroke-width = "0.166667"/>
        <rect x = "0" y = "24" width = "19" height = "19" fill = "#0397D6" stroke = "black" stroke-width = "0.166667"/>
        <rect x = "0" y = "5" width = "19" height = "19" fill = "#0397D6" stroke = "black" stroke-width = "0.166667"/>
        <rect x = "19" y = "81" width = "19" height = "19" fill = "#0397D6" stroke = "black" stroke-width = "0.166667"/>
        <rect x = "19" y = "62" width = "19" height = "19" fill = "#0397D6" stroke = "black" stroke-width = "0.166667"/>
        <rect x = "19" y = "43" width = "19" height = "19" fill = "#0397D6" stroke = "black" stroke-width = "0.166667"/>
        <rect x = "19" y = "24" width = "19" height = "19" fill = "#0397D6" stroke = "black" stroke-width = "0.166667"/>
        <rect x = "19" y = "5" width = "19" height = "19" fill = "#0397D6" stroke = "black" stroke-width = "0.166667"/>
        <rect x = "38" y = "81" width = "19" height = "19" fill = "#0397D6" stroke = "black" stroke-width = "0.166667"/>
        <rect x = "38" y = "62" width = "19" height = "19" fill = "#0397D6" stroke = "black" stroke-width = "0.166667"/>
        <rect x = "38" y = "43" width = "19" height = "19" fill = "#0397D6" stroke = "black" stroke-width = "0.166667"/>
        <rect x = "38" y = "24" width = "19" height = "19" fill = "#0397D6" stroke = "black" stroke-width = "0.166667"/>
        <rect x = "38" y = "5" width = "19" height = "19" fill = "#0397D6" stroke = "black" stroke-width = "0.166667"/>
        <rect x = "57" y = "81" width = "19" height = "19" fill = "#0397D6" stroke = "black" stroke-width = "0.166667"/>
        <rect x = "57" y = "62" width = "19" height = "19" fill = "#0397D6" stroke = "black" stroke-width = "0.166667"/>
        <rect x = "57" y = "43" width = "19" height = "19" fill = "#0397D6" stroke = "black" stroke-width = "0.166667"/>
        <rect x = "57" y = "24" width = "19" height = "19" fill = "#0397D6" stroke = "black" stroke-width = "0.166667"/>
        <rect x = "57" y = "5" width = "19" height = "19" fill = "#0397D6" stroke = "black" stroke-width = "0.166667"/>
        <rect x = "76" y = "81" width = "19" height = "19" fill = "#0397D6" stroke = "black" stroke-width = "0.166667"/>
        <rect x = "76" y = "62" width = "19" height = "19" fill = "#0397D6" stroke = "black" stroke-width = "0.166667"/>
        <rect x = "76" y = "43" width = "19" height = "19" fill = "#0397D6" stroke = "black" stroke-width = "0.166667"/>
        <rect x = "76" y = "24" width = "19" height = "19" fill = "#0397D6" stroke = "black" stroke-width = "0.166667"/>
        <rect x = "76" y = "5" width = "19" height = "19" fill = "#0397D6" stroke = "black" stroke-width = "0.166667"/>
    </g>
</svg>